<?xml version="1.0"?><svg width="1600" height="1200" xmlns="http://www.w3.org/2000/svg">
 <title>simple large bee hive</title>
 <metadata id="metadata12455">image/svg+xml</metadata>
 <g>
  <title>Layer 1</title>
  <g id="g12457">
   <g id="g12459">
    <path fill="#000000" fill-rule="nonzero" id="path12461" d="m1009.895813,1185.737549c57.922424,0.209839 104.207825,-43.495605 104.758606,-96.088013l0,0c-0.550781,-37.975952 -22.693726,-70.388 -53.875854,-87.609558c25.195923,-17.243896 41.843628,-45.913391 41.903564,-79.131287l0,0c-0.059937,-32.808472 -20.799072,-63.5 -47.889771,-81.957397c28.575195,-16.383057 47.829834,-46.907959 47.889771,-81.957458l0,0c-0.059937,-35.493225 -19.536133,-65.995544 -50.882935,-81.957397c28.71582,-18.547791 46.988892,-48.397278 47.889771,-81.957397l0,0c-0.900879,-42.558472 -28.949341,-77.817139 -68.841553,-90.43576c21.76001,-18.889771 35.390625,-45.152832 35.917236,-73.479065l0,0c-0.526611,-43.46283 -29.206543,-79.750183 -68.841248,-93.261841c-0.374084,-2.871307 -0.293274,-5.884003 0,-8.478363c-0.293274,-69.372711 -43.166626,-129.70462 -104.758728,-158.262573c-45.073059,-90.845535 -145.246277,-154.342777 -260.400024,-155.436467c-117.51532,1.09369 -217.679565,64.590932 -263.39328,155.436467c-60.961121,28.557953 -103.823273,88.889862 -104.758636,158.262573c0.935364,2.59436 1.017029,5.607056 0,8.478363c-39.003723,13.511658 -67.68399,49.799011 -68.8414,93.261841l0,0c1.15741,28.326233 14.801788,54.589294 35.917236,73.479065c-39.261139,12.618622 -67.309814,47.877289 -65.848282,90.43576l0,0c-1.461533,33.56012 16.824539,63.409607 44.896576,81.957397c-30.702682,15.961853 -50.181198,46.464172 -50.882782,81.957397l0,0c0.701584,35.0495 19.94635,65.574402 47.889664,81.957458c-26.45845,18.457397 -47.18808,49.148926 -47.889664,81.957397l0,0c0.701584,33.217896 17.339035,61.88739 41.903458,79.131287c-30.550613,17.221558 -52.695084,49.633606 -53.875885,87.609558l0,0c1.180801,52.592407 47.468842,96.297852 104.758652,96.088013l757.255508,0"/>
    <path fill="#000000" fill-rule="nonzero" id="path12463" d="m1219.413208,445.2948c-21.828857,7.870758 -48.44043,-4.569824 -59.862183,-28.2612c-1.355957,-2.184601 -2.220947,-3.631531 -2.993164,-5.652222c-2.864258,2.594421 -6.195679,4.405945 -8.979248,5.652222c-24.98645,10.973846 -50.918701,6.822327 -59.862061,-8.478302c-6.629761,-16.250183 6.665527,-37.666473 29.93103,-48.044006c19.069092,-8.269196 38.197876,-7.927246 50.88269,0c1.182251,-2.275024 3.427124,-3.962219 5.986328,-5.652222c2.630981,-0.596313 5.44751,-1.136108 8.979248,-2.826111c0.796021,-11.977112 12.813354,-26.02005 29.93103,-33.913452c25.219849,-10.753326 51.152222,-6.601776 59.862061,8.478394c6.875244,16.470612 -6.429077,37.886932 -29.93103,48.043976c-4.268066,2.074402 -7.880737,3.323486 -11.972412,5.652252c1.299072,-0.076355 1.918457,1.489349 2.993042,2.826111c11.703125,24.541962 4.687378,51.785767 -14.965332,62.174561"/>
    <path fill="#000000" fill-rule="nonzero" id="path12465" d="m105.978188,306.815063c20.87001,8.953125 47.492195,-3.487488 59.862099,-28.261169c0.409149,-1.10498 1.274445,-2.560486 2.993103,-2.826111c1.917389,0.839355 5.249603,2.648071 8.979294,2.826111c24.038513,12.044922 49.970779,7.893341 56.869003,-8.478333c8.675217,-15.167801 -4.618362,-36.595428 -29.931046,-48.044022c-17.02327,-7.186798 -36.151016,-6.856171 -47.889679,0c-2.127792,-1.192627 -4.37262,-2.891144 -5.986206,-2.826096c-3.577667,-2.351379 -6.395355,-2.891174 -8.979309,-2.826126c-1.741989,-13.732162 -13.761398,-27.775116 -32.924149,-36.739548c-23.173225,-9.682251 -49.10548,-5.530701 -56.868992,11.304489c-7.810116,14.715561 5.483368,36.143219 29.931049,48.044006c3.320541,0.319366 6.933228,1.568451 11.972412,2.826096c-2.24482,1.003311 -2.852722,2.571777 -2.993103,2.826126c-12.650658,25.621567 -5.635414,52.868179 14.965523,62.174576"/>
    <path fill="#ffffff" fill-rule="nonzero" id="path12467" d="m848.268127,162.683075c-43.211487,-69.991592 -124.037231,-117.736061 -215.503479,-118.69693c-93.815918,0.960869 -174.653717,48.705338 -218.496704,118.69693l434.000183,0"/>
    <path fill="#ffffff" fill-rule="nonzero" id="path12469" d="m997.923401,826.820679c38.512268,-0.649963 70.233093,-30.601257 68.841248,-67.826843l0,0c1.391846,-36.663208 -30.328979,-66.611572 -68.841248,-67.826721l-733.310669,0c-37.869659,1.215149 -69.589691,31.163513 -68.8414,67.826721l0,0c-0.748291,37.225586 30.971741,67.17688 68.8414,67.826843l733.310669,0"/>
    <path fill="#ffffff" fill-rule="nonzero" id="path12471" d="m962.006165,496.164917c38.045288,0.960938 69.766174,-28.990295 68.841248,-65.000702l0,0c0.924927,-37.87561 -30.795959,-67.826782 -68.841248,-67.826782l-658.483063,0c-40.406921,0 -72.126953,29.951172 -71.834534,67.826782l0,0c-0.292419,36.010406 31.427612,65.961639 71.834534,65.000702l658.483063,0"/>
    <path fill="#ffffff" fill-rule="nonzero" id="path12473" d="m964.999268,332.250122c0.11676,-0.850647 0.128662,-2.054535 0,-2.826111c0.128662,-62.482666 -41.670044,-115.319733 -98.772522,-135.653641l-466.924286,0c-59.46405,20.333908 -101.262756,73.170975 -101.765564,135.653641c0.502808,0.771576 0.514496,1.975464 0,2.826111l667.462372,0"/>
    <path fill="#ffffff" fill-rule="nonzero" id="path12475" d="m492.088684,1021.822815c-5.157166,12.894104 -7.518616,26.549988 -8.97934,42.391785l0,90.435791l-227.475922,0c-40.383575,0.562866 -72.103287,-29.387207 -71.834518,-65.000854l0,0c-0.268768,-38.274048 31.450943,-68.224121 71.834518,-67.826721l236.455261,0"/>
    <path fill="#ffffff" fill-rule="nonzero" id="path12477" d="m575.89563,662.905884c4.887695,-5.044617 8.242981,-9.846191 11.972351,-14.130554c-0.374084,-2.506775 0.50293,-3.96228 0,-5.652222c4.127502,2.263672 7.470825,4.072388 11.972473,5.652222c23.265381,10.654358 49.188721,6.502869 56.868958,-8.478455c7.904907,-16.56958 -5.402527,-37.99707 -29.93103,-48.043884c-17.805969,-8.588623 -36.922974,-8.257996 -47.889648,0c-2.90033,-2.594421 -5.157166,-4.295715 -8.979309,-5.652344c-1.355896,-0.92688 -4.184387,-1.469543 -5.986206,-2.82605c-2.526184,-12.299316 -14.543457,-26.350769 -32.924133,-33.913452c-23.956818,-11.083984 -49.877167,-6.932434 -56.869019,8.478394c-8.593231,16.139954 4.699188,37.567566 29.931061,48.043945c2.538177,1.743713 6.150787,2.99292 8.979279,2.826111c-0.023865,2.427612 -0.643494,3.996155 0,5.652344c-9.538971,16.34906 -8.94339,34.221375 0,48.043945l-242.441467,0c-40.032776,-1.257629 -71.752792,-31.208862 -71.834503,-67.826843l0,0c0.081711,-37.270874 31.801727,-67.219177 71.834503,-67.826843l724.331299,0c37.671204,0.607666 69.392151,30.555969 68.84137,67.826843l0,0c0.550781,36.617981 -31.170166,66.569214 -68.84137,67.826843l-419.034607,0"/>
    <path fill="#ffffff" fill-rule="nonzero" id="path12479" d="m902.144043,990.735474c-6.920166,-4.4599 -11.646179,-10.542847 -14.965515,-16.956726c-0.877014,-2.086487 -1.754028,-3.532593 -2.993164,-5.652222c-2.385437,2.693604 -5.728821,4.503967 -8.979309,5.652222c-24.516541,11.072754 -50.439697,6.921753 -56.868896,-8.478333c-9.156006,-16.139709 4.151428,-37.567566 26.937866,-48.043945c19.548035,-8.170349 38.664917,-7.828369 50.882751,0c1.64917,-2.176147 3.906006,-3.863403 5.986267,-5.652283c3.0979,-0.497314 5.926392,-1.03717 8.979248,-2.826111c1.275024,-11.878174 13.292419,-25.921143 32.924255,-33.913391c22.705627,-10.654541 48.637878,-6.502869 56.868896,8.478271c7.342102,16.569641 -5.950317,37.987061 -29.93103,48.044067c-3.789185,2.174744 -7.401917,3.422119 -11.972351,5.652283c1.76593,0.03302 2.385437,1.589661 2.993103,2.825989c9.155762,18.524414 7.470703,37.987061 -2.993103,50.870178l38.910339,0c38.512268,-0.044067 70.233093,-29.994446 68.841248,-67.826782l0,0c1.391846,-36.055542 -30.328979,-66.004028 -68.841248,-65.000671l-733.310669,0c-37.869659,-1.003357 -69.589691,28.945129 -68.8414,65.000671l0,0c-0.748291,37.832336 30.971741,67.782715 68.8414,67.826782l242.441467,0c24.741028,-40.97876 72.208679,-68.356689 125.710449,-67.826782c54.905457,-0.529907 102.316284,26.781982 128.70343,67.826782l140.675964,0"/>
    <path fill="#ffffff" fill-rule="nonzero" id="path12481" d="m1237.371704,366.163544c16.554932,-7.969696 25.501221,-22.111572 20.95166,-31.08728c-5.65979,-11.69165 -22.870117,-14.308624 -38.910156,-8.478363c-16.228638,8.368103 -25.160156,22.51004 -20.951782,33.913391c5.998169,9.26123 23.208496,11.878204 38.910278,5.652252"/>
    <path fill="#ffffff" fill-rule="nonzero" id="path12483" d="m1141.592407,408.555298c-15.794678,6.05069 -33.016968,3.433716 -38.910278,-5.652252c-4.31311,-11.58139 4.630249,-25.723236 20.95166,-33.913391c15.935303,-6.005493 33.14563,-3.38855 38.910278,5.652222c4.441895,11.62384 -4.489624,25.765747 -20.95166,33.913422"/>
    <path fill="#ffffff" fill-rule="nonzero" id="path12485" d="m88.019562,227.683792c-17.502785,-6.898621 -26.44677,-21.02919 -20.951736,-31.087296c4.711746,-10.62056 21.933777,-13.237518 38.910362,-5.652237c15.281296,6.62439 24.213615,20.75499 17.958626,31.08728c-3.951797,10.332321 -21.162148,12.960571 -35.917252,5.652252"/>
    <path fill="#ffffff" fill-rule="nonzero" id="path12487" d="m183.798904,270.075562c14.848495,7.13031 32.070511,4.504822 35.917267,-5.652252c6.360336,-10.51033 -2.583954,-24.6409 -17.958633,-31.087296c-16.882889,-7.760513 -34.093246,-5.143585 -38.910355,5.652252c-5.389999,9.880096 3.542633,24.010696 20.951721,31.087296"/>
    <path fill="#ffffff" fill-rule="nonzero" id="path12489" d="m507.054199,597.905151c-15.291779,-8.303101 -24.226166,-22.433716 -17.958618,-33.913391c3.938934,-9.184937 21.149231,-11.81311 35.917297,-5.652222c17.491638,8.048828 26.423096,22.179443 20.95166,33.913452c-4.723083,8.93042 -21.945435,11.558777 -38.910339,5.652161"/>
    <path fill="#ffffff" fill-rule="nonzero" id="path12491" d="m602.833557,640.296875c17.069702,5.728638 34.280029,3.103088 38.910339,-8.478271c5.576172,-9.085999 -3.355286,-23.216675 -20.951721,-31.08728c-14.660278,-6.336182 -31.882568,-3.710754 -35.917297,5.652161c-6.171692,11.304443 2.771606,25.43512 17.958679,33.913391"/>
    <path fill="#ffffff" fill-rule="nonzero" id="path12493" d="m964.999268,922.908691c17.033752,-7.870789 25.96814,-22.012634 20.95166,-31.087341c-5.190063,-11.592773 -22.400391,-14.206848 -38.910278,-8.478394c-15.749756,8.467163 -24.681213,22.608948 -20.951904,33.913513c6.477173,9.361389 23.687622,11.977844 38.910522,5.652222"/>
    <path fill="#ffffff" fill-rule="nonzero" id="path12495" d="m869.21991,965.300415c-15.327698,6.160095 -32.538025,3.532654 -38.9104,-5.652161c-3.834229,-11.48114 5.09729,-25.622803 20.951721,-33.913513c16.414185,-5.906006 33.624573,-3.289917 38.910339,5.652283c4.923706,11.723816 -4.022644,25.865479 -20.95166,33.913391"/>
    <path fill="#ffffff" fill-rule="nonzero" id="path12497" d="m1009.895813,1021.822815c38.021423,-0.3974 69.742249,29.552673 68.84137,67.826721l0,0c0.900879,35.613647 -30.819946,65.563721 -68.84137,65.000854l-227.475952,0l0,-90.435791c0.011963,-15.841797 -2.349609,-29.497681 -5.986267,-42.391785l233.462219,0"/>
   </g>
  </g>
 </g>
</svg>